<?xml version="1.0" encoding="utf-8"?>
<!-- Generator: Adobe Illustrator 23.0.1, SVG Export Plug-In . SVG Version: 6.00 Build 0)  -->
<svg version="1.1" id="Layer_1" xmlns="http://www.w3.org/2000/svg" xmlns:xlink="http://www.w3.org/1999/xlink" x="0px" y="0px"
	 viewBox="0 0 699.37 135.41" style="enable-background:new 0 0 699.37 135.41;" xml:space="preserve">
<style type="text/css">
	.st0{opacity:0.4;fill:#808285;}
	.st1{fill:#6D6E71;}
	.st2{fill:none;stroke:#6D6E71;stroke-width:2;stroke-miterlimit:10;}
</style>
<rect x="0" class="st0" width="699.37" height="135.41"/>
<g>
	<g>
		<path class="st1" d="M51.97,135.98c13.69,1.73,34.68,1.44,43.43-11.3c4.49-6.53,5.66-14.88,6.77-22.55
			c1.3-8.95,2.01-17.99,2.09-27.04c0.04-4.95-0.98-10.7,1.52-15.15c2.59-4.62,9.03-7.05,13.9-8.47c9.79-2.85,18.88-1.14,28.47,1.48
			c10.21,2.79,27.82,5.29,29.82-9.44c1.2-8.87-4.8-16.95-4.5-25.88c0.33-9.96,5.51-19.24,13.7-24.85c1.32-0.9,0.07-3.07-1.26-2.16
			c-10.39,7.12-16.4,19.72-14.66,32.33c1.14,8.29,9.33,21.05,0.06,27.4c-6.85,4.69-16.07,1.95-23.32-0.05
			c-13.63-3.76-31.21-5.1-42.45,5.64c-5.15,4.92-3.72,12.71-3.77,19.14c-0.09,10.1-0.94,20.2-2.59,30.16
			c-1.77,10.69-4.72,21.39-15.92,25.52c-9.86,3.63-20.96,4.02-31.29,2.71C50.38,133.28,50.39,135.78,51.97,135.98L51.97,135.98z"/>
	</g>
</g>
<g>
	<g>
		<path class="st1" d="M62.72,141.59c2.3-7.52,3.39-15.33,2.94-23.2c-0.43-7.51-5.94-19.64,0.16-25.55c6.48-6.27,21.6-4.02,29.6-2.5
			c8.4,1.6,15.76,3.73,24.42,3.6c5.84-0.09,11.45-0.73,15.68-5.18c3.57-3.76,5.4-8.97,5.97-14.04c0.95-8.47-1.72-16.85-2.26-25.25
			c-0.53-8.32,0.43-21.95,8.34-26.74c18.56-11.25,39-10.22,58.32-1.54c1.46,0.65,2.73-1.5,1.26-2.16
			c-14.68-6.6-31.65-10.15-47.3-4.76c-6.37,2.2-15.19,5.28-18.72,11.41c-3.92,6.8-4.89,16.1-4.4,23.78
			c0.58,9.14,3.8,18.41,1.87,27.57c-0.8,3.82-2.45,7.66-5.3,10.4c-3.94,3.79-9.23,3.97-14.4,4.01c-9.7,0.08-18.35-3.14-27.86-4.32
			c-7.49-0.93-17.46-1.72-24.43,1.9c-6.92,3.59-6.46,11.21-5.17,17.86c2.25,11.63,2.36,22.6-1.14,34.03
			C59.84,142.47,62.25,143.13,62.72,141.59L62.72,141.59z"/>
	</g>
</g>
<g>
	<g>
		<path class="st1" d="M59.86,134.02c1.32-5.24,2.88-10.4,4.69-15.49c0.54-1.52-1.88-2.17-2.41-0.66
			c-1.8,5.09-3.37,10.25-4.69,15.49C57.06,134.92,59.47,135.59,59.86,134.02L59.86,134.02z"/>
	</g>
</g>
<line class="st2" x1="63.26" y1="109.56" x2="72.38" y2="133.69"/>
<line class="st2" x1="63.34" y1="97.72" x2="83.85" y2="131.87"/>
<line class="st2" x1="64.23" y1="92.35" x2="92.87" y2="125.95"/>
<line class="st2" x1="69.34" y1="89.25" x2="98.01" y2="116.26"/>
<line class="st2" x1="78.55" y1="87.9" x2="100.06" y2="107.47"/>
<line class="st2" x1="91.96" y1="88.51" x2="101.52" y2="97.69"/>
<line class="st2" x1="102.99" y1="77.07" x2="113.71" y2="92.65"/>
<line class="st2" x1="102.96" y1="67.25" x2="124.58" y2="92.5"/>
<line class="st2" x1="104.94" y1="58.48" x2="133.71" y2="90.35"/>
<line class="st2" x1="111.43" y1="53.48" x2="137.38" y2="84.05"/>
<line class="st2" x1="119.26" y1="50.29" x2="139.53" y2="78.52"/>
<line class="st2" x1="129.39" y1="48.62" x2="140.39" y2="69.6"/>
<line class="st2" x1="140.27" y1="56.06" x2="141.17" y2="50.82"/>
<line class="st2" x1="138.32" y1="39.64" x2="163.19" y2="53.44"/>
<line class="st2" x1="140.89" y1="29.32" x2="170.22" y2="53.44"/>
<line class="st2" x1="147.1" y1="21.55" x2="172.78" y2="50.81"/>
<line class="st2" x1="155.56" y1="17.33" x2="175.31" y2="47.84"/>
<line class="st2" x1="165.44" y1="14.01" x2="175.1" y2="44.87"/>
<line class="st2" x1="180.62" y1="-3.2" x2="206.52" y2="20.11"/>
<line class="st2" x1="174.95" y1="5.64" x2="195.85" y2="15.09"/>
<line class="st2" x1="177.09" y1="12.9" x2="174.74" y2="27.54"/>
<line class="st2" x1="172.03" y1="15.45" x2="195.13" y2="16.71"/>
<line class="st2" x1="172.97" y1="25.44" x2="186.54" y2="13.79"/>
<g>
	<g>
		<path class="st1" d="M590.94,50.7c-6.21,14.7-21.75,25.17-39.02,24.11c-4.41-0.27-8.81-1.27-12.82-3
			c-4.17-1.79-7.42-4.47-10.97-7.1c-6.43-4.76-14.31-7.18-22.19-4.06c-3.53,1.4-6.67,3.49-9.97,5.28c-2.9,1.57-9.98,5.29-12.62,1.65
			c-1.93-2.66,1.35-6.34,3.18-8.2c2.59-2.63,5.7-4.76,9.08-6.44c7.99-3.98,18.34-6.4,27.32-4.4c8.87,1.98,14,8.96,20.83,13.91
			c7.47,5.42,16.93,6.45,25.92,3.96c9.53-2.64,17.3-8.85,24.17-15.29c1.07-1.01-0.6-2.56-1.67-1.55
			c-7.13,6.69-15.27,13.15-25.41,15.28c-4.85,1.01-10.04,1-14.76-0.55c-4.5-1.47-8.08-4.42-11.47-7.43c-3.04-2.7-6.04-5.52-9.62-7.6
			c-3.84-2.23-8.24-3.33-12.74-3.55c-9.21-0.45-19.2,2.33-26.86,7.03c-4.47,2.74-12.03,8.42-10.75,14.17
			c1.85,8.34,13.97,2.41,18.4-0.12c3.6-2.06,7.26-4.45,11.49-5.23c5.37-0.99,10.68,1.04,14.96,3.94c3.78,2.55,6.97,5.57,11.18,7.58
			c3.9,1.87,8.12,3.07,12.46,3.62c19.38,2.47,37.21-8.95,44.17-25.45C593.78,49.97,591.49,49.4,590.94,50.7L590.94,50.7z"/>
	</g>
</g>
<g>
	<g>
		<path class="st1" d="M483.03,68.28c4.04-3.79,9.02-6.07,13.98-8.44c3.16-1.51,6.1-2.43,9.47-3.24c0.47-0.11,0.87-0.72,1.44-0.34
			c-0.67-0.44-1.3,0.64-0.63,1.08c4.41,2.91,5.13-5.46,0.99-4.08c-1.28,0.43-2.03,1.68-3.39,2.2c-2.57,0.99-5.13,1.71-7.67,2.9
			c-5.34,2.5-10.74,4.98-15.07,9.04C481.56,67.95,482.45,68.83,483.03,68.28L483.03,68.28z"/>
	</g>
</g>
<g>
	<g>
		<path class="st1" d="M508.48,58.41c3.22,0,3.22-5,0-5C505.26,53.41,505.26,58.41,508.48,58.41L508.48,58.41z"/>
	</g>
</g>
<g>
	<g>
		<path class="st1" d="M496.42,61.31c2.41,0,2.42-3.75,0-3.75C494.01,57.56,494,61.31,496.42,61.31L496.42,61.31z"/>
	</g>
</g>
<g>
	<g>
		<path class="st1" d="M528.85,66.84c1.28,0.21,2.48,1.44,3.52,2.17c1.25,0.88,2.49,1.76,3.74,2.64c2.63,1.86,5.13-2.47,2.52-4.32
			c-1.41-1-2.82-1.99-4.23-2.99c-1.31-0.92-2.6-2.05-4.22-2.33c-1.33-0.22-2.69,0.35-3.08,1.75
			C526.78,64.96,527.52,66.62,528.85,66.84L528.85,66.84z"/>
	</g>
</g>
</svg>
